# xmcd CD database file
#
# Track frame offsets:
#	150
#	19025
#	37759
#	62773
#	77918
#	92694
#	117146
#	129980
#	154154
#	182229
#	210557
#	236018
#	256643
#	275859
#	289810
#	311472
#
# Disc length: 4412 seconds
#
# Revision: 0
# Processed by: cddbd v1.5.2PL0 Copyright (c) Steve Scherf et al.
# Submitted via: CDex 1.51
#
DISCID=d6113a10
DTITLE=B.B. KING - Ladies - Gentlemen...(When It All Comes Down[I'll Still Be Around] 1978-1983)
DYEAR=2012
DGENRE=Blues
TTITLE0=When It All Comes Down(I'll Still Be Around)
TTITLE1=Hold On(I Feel Our Love Is Shanging) 
TTITLE2=Never Make YourMove Too Soon
TTITLE3=Better Not Look Down
TTITLE4=Happy Birthday Blues
TTITLE5=I've Always Been Lonely
TTITLE6=Caldonia(Live)
TTITLE7=I Got Some Help I Don't Need(Live)
TTITLE8=Life Ain't Nothing But A Party
TTITLE9=The Victim
TTITLE10=There Must Be A Better World Somewhere
TTITLE11=Nightlife  - Please Send Me Someone To Love
TTITLE12=Inflation Blues
TTITLE13=Sell My Monkey
TTITLE14=Darlin' You Know I Love You
TTITLE15=Make Love To Me
EXTD=YEAR: 2012
EXTT0=
EXTT1=
EXTT2=
EXTT3=
EXTT4=
EXTT5=
EXTT6=
EXTT7=
EXTT8=
EXTT9=
EXTT10=
EXTT11=
EXTT12=
EXTT13=
EXTT14=
EXTT15=
PLAYORDER=
